<svg xmlns="http://www.w3.org/2000/svg" width="1191" height="633" viewBox="0 0 1191 633" role="img" aria-label="Recreated black logo" shape-rendering="crispEdges">
  <!-- Recreated from uploaded PNG. Thresholded black silhouette and traced as pixel-accurate orthogonal SVG paths. Crop origin in source image: x=104, y=109. -->
  <path d="M749 0 H779 V22 H780 V23 H800 V24 H801 V25 H802 V45 H803 V46 H822 V47 H824 V48 H825 V67 H826 V69 H828 V70 H847 V71 H848 V259 H849 V260 H850 V261 H870 V260 H871 V241 H872 V239 H873 V238 H893 V237 H894 V235 H895 V216 H896 V215 H915 V214 H917 V213 H918 V193 H919 V192 H1137 V193 H1138 V194 H1139 V213 H1140 V214 H1141 V215 H1166 V216 H1167 V217 H1168 V236 H1169 V237 H1170 V238 H1191 V296 H1170 V297 H1169 V298 H1168 V317 H1167 V318 H1166 V319 H1165 V320 H1140 V321 H1139 V340 H1138 V342 H1136 V343 H1112 V342 H1111 V341 H1110 V322 H1109 V321 H1108 V320 H972 V321 H971 V322 H970 V341 H969 V342 H968 V343 H949 V344 H948 V345 H947 V480 H948 V481 H949 V482 H968 V483 H969 V484 H970 V503 H971 V504 H972 V505 H1108 V504 H1109 V502 H1110 V483 H1112 V482 H1137 V483 H1138 V484 H1139 V503 H1140 V504 H1141 V505 H1166 V506 H1167 V507 H1168 V527 H1169 V528 H1191 V587 H1169 V588 H1168 V608 H1167 V609 H1166 V610 H1141 V611 H1140 V612 H1139 V633 H918 V612 H917 V611 H916 V610 H897 V609 H896 V608 H895 V589 H894 V588 H893 V587 H874 V586 H873 V585 H872 V584 H871 V559 H870 V558 H845 V557 H844 V556 H843 V555 H842 V536 H841 V535 H840 V534 H828 V535 H826 V536 H825 V556 H824 V557 H822 V558 H803 V559 H802 V584 H801 V586 H799 V587 H780 V588 H779 V607 H778 V609 H776 V610 H757 V611 H756 V612 H755 V633 H529 V613 H528 V611 H527 V610 H508 V609 H506 V607 H505 V588 H504 V587 H485 V586 H483 V584 H482 V559 H481 V558 H443 V559 H442 V584 H441 V585 H440 V586 H439 V587 H414 V588 H413 V607 H412 V609 H410 V610 H368 V611 H367 V612 H366 V633 H116 V612 H115 V611 H114 V610 H95 V609 H94 V608 H93 V589 H92 V588 H91 V587 H72 V586 H71 V585 H70 V560 H69 V559 H68 V558 H49 V557 H48 V556 H47 V555 H46 V536 H45 V535 H44 V534 H25 V533 H24 V532 H23 V513 H22 V512 H21 V511 H0 V337 H21 V336 H22 V335 H23 V293 H24 V291 H26 V290 H45 V289 H46 V264 H47 V263 H48 V262 H49 V261 H68 V260 H69 V259 H70 V240 H71 V239 H72 V238 H91 V237 H92 V236 H93 V217 H94 V216 H95 V215 H114 V214 H115 V213 H116 V194 H117 V193 H118 V192 H341 V193 H342 V194 H343 V213 H344 V214 H345 V215 H364 V216 H365 V217 H366 V236 H367 V237 H368 V238 H387 V239 H388 V240 H389 V259 H390 V260 H391 V261 H410 V262 H411 V263 H412 V264 H413 V289 H414 V290 H434 V289 H435 V288 H436 V263 H437 V262 H438 V261 H457 V260 H458 V259 H459 V240 H460 V239 H461 V238 H480 V237 H481 V236 H482 V217 H483 V216 H484 V215 H503 V214 H504 V213 H505 V194 H506 V193 H507 V192 H678 V193 H679 V194 H680 V317 H679 V318 H678 V319 H677 V320 H612 V321 H611 V322 H610 V341 H609 V342 H608 V343 H589 V344 H588 V345 H587 V364 H586 V365 H585 V366 H560 V367 H559 V368 H558 V387 H557 V388 H556 V389 H537 V390 H536 V391 H535 V457 H536 V458 H537 V459 H556 V460 H557 V461 H558 V480 H559 V481 H560 V482 H585 V483 H586 V484 H587 V503 H588 V504 H589 V505 H695 V504 H696 V503 H697 V484 H698 V483 H699 V482 H724 V481 H725 V480 H726 V461 H727 V460 H728 V459 H747 V458 H748 V457 H749 Z M536 221 V222 H535 V241 H534 V243 H533 V244 H513 V245 H512 V247 H511 V266 H510 V267 H490 V268 H489 V269 H488 V294 H487 V295 H486 V296 H467 V297 H466 V298 H465 V317 H464 V318 H463 V319 H462 V320 H443 V321 H442 V363 H441 V365 H439 V366 H415 V367 H413 V439 H412 V440 H411 V441 H392 V442 H391 V443 H390 V444 H389 V463 H388 V464 H387 V465 H368 V466 H367 V467 H366 V486 H365 V487 H364 V488 H345 V489 H344 V490 H343 V509 H342 V510 H341 V511 H322 V512 H321 V513 H320 V532 H319 V533 H318 V534 H223 V535 H222 V536 H221 V555 H220 V557 H218 V558 H199 V559 H198 V584 H197 V585 H196 V586 H195 V587 H176 V588 H175 V589 H174 V601 H175 V603 H177 V604 H335 V603 H336 V602 H337 V583 H338 V581 H381 V580 H382 V579 H383 V554 H384 V553 H385 V552 H404 V551 H405 V550 H406 V549 H407 V530 H408 V529 H409 V528 H434 V527 H435 V526 H436 V507 H437 V506 H438 V505 H457 V504 H458 V503 H459 V461 H460 V460 H461 V459 H480 V458 H481 V457 H482 V409 H483 V407 H485 V406 H504 V405 H505 V363 H506 V361 H507 V360 H526 V359 H528 V357 H529 V338 H530 V337 H549 V336 H551 V334 H552 V315 H553 V314 H555 V313 H579 V312 H580 V311 H581 V292 H582 V291 H583 V290 H649 V289 H650 V288 H651 V223 H650 V222 H649 V221 Z M176 320 V321 H175 V322 H174 V341 H173 V342 H172 V343 H153 V344 H152 V345 H151 V364 H150 V365 H149 V366 H124 V367 H123 V368 H122 V457 H123 V458 H125 V459 H149 V460 H150 V461 H151 V480 H152 V481 H153 V482 H172 V483 H174 V503 H175 V504 H176 V505 H289 V504 H290 V485 H291 V483 H292 V482 H311 V481 H313 V479 H314 V460 H315 V459 H334 V458 H336 V456 H337 V368 H336 V367 H335 V366 H316 V365 H315 V364 H314 V345 H313 V344 H312 V343 H293 V342 H292 V341 H291 V340 H290 V321 H289 V320 Z" fill="#000000" fill-rule="evenodd"/>
</svg>
