<svg xmlns="http://www.w3.org/2000/svg" viewBox="0 0 2058 1079" role="img" aria-label="OSDC">
  <path fill="#000000" fill-rule="evenodd" d="M1285.7 366.1C1285.4 706.9 1285.3 732.1 1283.7 740C1270.1 807 1230.3 859.5 1171.7 887.5C1142.1 901.6 1116.5 907.3 1082.5 907.3C1047.4 907.2 1022.2 901.4 993.2 886.5C945.1 862 907.2 817.7 889.9 765.9C879.8 735.6 877.7 707.3 882.9 672.5C886.4 649.5 888.3 643 894.7 632.1C921.8 585.8 953.3 556 998.5 534C1030.5 518.4 1059.1 513 1114.3 512.4C1148.3 512 1149.6 511.9 1153.3 506.8C1156 503.2 1183.3 363.8 1182.7 356.9C1182.1 350.1 1179.1 345 1173.7 341.6C1165.6 336.6 1124.4 330.7 1088.5 329.4C1026.6 327.2 950.9 343.5 891.2 372.1C853.5 390.1 824.7 410.3 796.4 438.5C774.7 460.2 760 478.5 739.1 510C728.9 525.4 724.7 532.5 711.9 555.4L709.2 560.4L702.2 546.4C672.2 486.5 634 441.7 581 404C538.4 373.8 483.5 351.2 430.5 342C390.7 335.2 344.3 335.2 304.6 342C207.4 358.8 119.2 416.4 63.5 499.5C-11.6 611.6 -20.3 754.4 40.5 875C58.8 911.1 79.4 939.5 108.5 968.5C145.6 1005.6 189.5 1033.9 238.5 1052.2C303.2 1076.5 390.6 1085 466.5 1074.4C546.1 1063.4 626.7 1031.1 682.5 988C711.6 965.5 747.5 930 766.5 904.7C769.3 901.1 771.7 898.1 772 898.1C772.3 898.1 774 900.5 775.8 903.5C792.1 930.5 822.3 964.8 850.3 988.1C904.9 1033.8 968.2 1061 1041 1070.2C1054.8 1071.9 1103.9 1071.9 1118 1070.2C1186.9 1061.7 1248.4 1039.5 1297.7 1005.3C1327.8 984.5 1356.6 955.8 1378.8 924.6C1404.4 888.6 1427.2 840.2 1439.4 795.6L1442.7 783.7L1445.9 796.6C1457.1 841.3 1476.3 882.5 1502.7 918.7C1529.7 955.7 1565.6 989.6 1605.3 1015.4C1651.6 1045.6 1700.2 1062.9 1759 1070.2C1774.9 1072.2 1822.9 1071.8 1841 1069.6C1882.3 1064.6 1915.4 1055.9 1949 1041.3C1983.8 1026.2 2023.5 1000 2048.8 975.5C2056.2 968.2 2057 967.1 2057 963.7C2057 961.6 2056.4 958.7 2055.6 957.2C2054.8 955.7 2047.5 948.2 2039.3 940.6C2031.2 932.9 2008 910.8 1987.9 891.5C1949.3 854.3 1947.6 852.9 1940.8 854.8C1938.9 855.3 1931.8 860 1924.9 865.2C1891.7 890.4 1859.6 903.3 1820.5 907.1C1806.4 908.5 1784.3 907.8 1769 905.4C1685.7 892.8 1620.3 829.7 1602.5 745C1598.9 728.1 1597.9 696.5 1600.4 678.7C1606.4 636.3 1626.7 595.8 1657.8 564.2C1705.3 516 1774 495 1840.6 508.5C1872 514.9 1904.3 530.2 1929.9 551C1938.5 558 1941.9 559.4 1947.2 558C1950.6 557 1955.4 552.8 1975.9 532.7C1989.5 519.4 2012.6 497.1 2027.3 483.1C2057.3 454.6 2058.5 452.9 2055.5 445.2C2054.2 442.2 2051.2 438.7 2044.1 432.7C1984.5 380.9 1919.4 351.2 1846 342.4C1826.3 340 1787.1 340 1767 342.4C1674.7 353.3 1602.8 386.1 1545.5 443.4C1506.6 482.3 1475.6 531.6 1454.4 588L1450.1 599.5L1450 381.4C1450 228.2 1449.7 162.4 1448.9 160.2C1447.4 156 1313.4 24.5 1288.3 2.6L1286 0.7L1285.7 366.1ZM1112.5 356.1C1124.1 357.1 1155.9 361.6 1156.7 362.4C1157 362.7 1135.1 477.3 1133.3 484.7C1132.8 487 1132.6 487 1114.1 487C1074.2 487 1041.4 491.4 1013.2 500.6C999.2 505.2 971.4 519 957.4 528.3C920.1 553.1 893.5 582.6 869 626.5C854 653.2 838.5 689.7 833.9 709.4C832.8 713.8 830.4 722.4 828.5 728.5C826.7 734.5 823.9 743.5 822.5 748.5C815.8 770.9 797.3 812 782.5 837C757.7 878.9 726 917.5 691 948.3C661.6 974.2 639.1 989.2 604 1006.4C523.2 1046.2 433.6 1061.2 341.9 1050.3C333.4 1049.3 328 1048.3 328 1047.6C328 1047 334.2 1019.3 341.8 986L355.7 925.5L360.6 925.3C480.9 919.6 586.1 858.3 656.8 752.5C676.5 723 686.6 700.5 701.5 652.6C717.5 600.9 727.1 578 746.7 545C780.6 488 818.4 446 861.2 417.7C899.2 392.5 947.1 373.4 997.7 363.1C1039.5 354.6 1071.6 352.7 1112.5 356.1ZM386.5 512C411.9 514.1 433 519.7 455 530.1C512.6 557.6 551.4 610.7 562.7 677.9C564.1 686 564.5 693.8 564.4 711C564.4 731.4 564.1 734.7 561.7 746.1C549.7 802.8 512.4 851.8 462.8 876.1C451.9 881.4 429.2 889.1 412 893.4C397.9 896.8 380.9 899 361.5 899.7C346.7 900.2 344.6 900.1 332.5 897.6C297 890.1 264.1 874.7 239.3 853.9C207.1 826.8 182.5 782.9 174.5 738C172.2 725.2 171.4 698.2 172.9 685C178.1 639.2 198 598.5 230.6 567C266.9 532 313 513.4 369.1 511.2C371.6 511.1 379.5 511.5 386.5 512Z"/>
</svg>
