<svg xmlns="http://www.w3.org/2000/svg" viewBox="0 0 45 45" width="360" height="360" shape-rendering="crispEdges" role="img" aria-label="QR code linking to links.osdc.dev">
  <rect width="45" height="45" fill="#ffffff"/>
  <path fill="#101012" d="M4 4h1v1h-1zM5 4h1v1h-1zM6 4h1v1h-1zM7 4h1v1h-1zM8 4h1v1h-1zM9 4h1v1h-1zM10 4h1v1h-1zM13 4h1v1h-1zM14 4h1v1h-1zM17 4h1v1h-1zM23 4h1v1h-1zM28 4h1v1h-1zM29 4h1v1h-1zM30 4h1v1h-1zM31 4h1v1h-1zM34 4h1v1h-1zM35 4h1v1h-1zM36 4h1v1h-1zM37 4h1v1h-1zM38 4h1v1h-1zM39 4h1v1h-1zM40 4h1v1h-1zM4 5h1v1h-1zM10 5h1v1h-1zM13 5h1v1h-1zM17 5h1v1h-1zM18 5h1v1h-1zM19 5h1v1h-1zM20 5h1v1h-1zM21 5h1v1h-1zM22 5h1v1h-1zM23 5h1v1h-1zM26 5h1v1h-1zM29 5h1v1h-1zM32 5h1v1h-1zM34 5h1v1h-1zM40 5h1v1h-1zM4 6h1v1h-1zM6 6h1v1h-1zM7 6h1v1h-1zM8 6h1v1h-1zM10 6h1v1h-1zM13 6h1v1h-1zM14 6h1v1h-1zM18 6h1v1h-1zM19 6h1v1h-1zM22 6h1v1h-1zM23 6h1v1h-1zM24 6h1v1h-1zM25 6h1v1h-1zM27 6h1v1h-1zM28 6h1v1h-1zM32 6h1v1h-1zM34 6h1v1h-1zM36 6h1v1h-1zM37 6h1v1h-1zM38 6h1v1h-1zM40 6h1v1h-1zM4 7h1v1h-1zM6 7h1v1h-1zM7 7h1v1h-1zM8 7h1v1h-1zM10 7h1v1h-1zM13 7h1v1h-1zM14 7h1v1h-1zM15 7h1v1h-1zM17 7h1v1h-1zM18 7h1v1h-1zM20 7h1v1h-1zM22 7h1v1h-1zM24 7h1v1h-1zM27 7h1v1h-1zM28 7h1v1h-1zM30 7h1v1h-1zM31 7h1v1h-1zM34 7h1v1h-1zM36 7h1v1h-1zM37 7h1v1h-1zM38 7h1v1h-1zM40 7h1v1h-1zM4 8h1v1h-1zM6 8h1v1h-1zM7 8h1v1h-1zM8 8h1v1h-1zM10 8h1v1h-1zM12 8h1v1h-1zM13 8h1v1h-1zM14 8h1v1h-1zM15 8h1v1h-1zM16 8h1v1h-1zM17 8h1v1h-1zM23 8h1v1h-1zM24 8h1v1h-1zM25 8h1v1h-1zM26 8h1v1h-1zM29 8h1v1h-1zM30 8h1v1h-1zM34 8h1v1h-1zM36 8h1v1h-1zM37 8h1v1h-1zM38 8h1v1h-1zM40 8h1v1h-1zM4 9h1v1h-1zM10 9h1v1h-1zM13 9h1v1h-1zM15 9h1v1h-1zM21 9h1v1h-1zM24 9h1v1h-1zM27 9h1v1h-1zM28 9h1v1h-1zM30 9h1v1h-1zM31 9h1v1h-1zM34 9h1v1h-1zM40 9h1v1h-1zM4 10h1v1h-1zM5 10h1v1h-1zM6 10h1v1h-1zM7 10h1v1h-1zM8 10h1v1h-1zM9 10h1v1h-1zM10 10h1v1h-1zM12 10h1v1h-1zM14 10h1v1h-1zM16 10h1v1h-1zM18 10h1v1h-1zM20 10h1v1h-1zM22 10h1v1h-1zM24 10h1v1h-1zM26 10h1v1h-1zM28 10h1v1h-1zM30 10h1v1h-1zM32 10h1v1h-1zM34 10h1v1h-1zM35 10h1v1h-1zM36 10h1v1h-1zM37 10h1v1h-1zM38 10h1v1h-1zM39 10h1v1h-1zM40 10h1v1h-1zM12 11h1v1h-1zM13 11h1v1h-1zM14 11h1v1h-1zM15 11h1v1h-1zM17 11h1v1h-1zM19 11h1v1h-1zM20 11h1v1h-1zM25 11h1v1h-1zM26 11h1v1h-1zM28 11h1v1h-1zM29 11h1v1h-1zM30 11h1v1h-1zM31 11h1v1h-1zM6 12h1v1h-1zM7 12h1v1h-1zM10 12h1v1h-1zM11 12h1v1h-1zM12 12h1v1h-1zM13 12h1v1h-1zM15 12h1v1h-1zM18 12h1v1h-1zM19 12h1v1h-1zM21 12h1v1h-1zM22 12h1v1h-1zM23 12h1v1h-1zM25 12h1v1h-1zM26 12h1v1h-1zM27 12h1v1h-1zM29 12h1v1h-1zM30 12h1v1h-1zM33 12h1v1h-1zM34 12h1v1h-1zM36 12h1v1h-1zM6 13h1v1h-1zM8 13h1v1h-1zM13 13h1v1h-1zM15 13h1v1h-1zM18 13h1v1h-1zM20 13h1v1h-1zM21 13h1v1h-1zM22 13h1v1h-1zM24 13h1v1h-1zM25 13h1v1h-1zM26 13h1v1h-1zM28 13h1v1h-1zM31 13h1v1h-1zM34 13h1v1h-1zM35 13h1v1h-1zM36 13h1v1h-1zM37 13h1v1h-1zM39 13h1v1h-1zM40 13h1v1h-1zM4 14h1v1h-1zM5 14h1v1h-1zM10 14h1v1h-1zM11 14h1v1h-1zM15 14h1v1h-1zM16 14h1v1h-1zM17 14h1v1h-1zM19 14h1v1h-1zM20 14h1v1h-1zM21 14h1v1h-1zM22 14h1v1h-1zM23 14h1v1h-1zM24 14h1v1h-1zM25 14h1v1h-1zM26 14h1v1h-1zM29 14h1v1h-1zM30 14h1v1h-1zM32 14h1v1h-1zM37 14h1v1h-1zM39 14h1v1h-1zM5 15h1v1h-1zM6 15h1v1h-1zM8 15h1v1h-1zM9 15h1v1h-1zM11 15h1v1h-1zM13 15h1v1h-1zM14 15h1v1h-1zM15 15h1v1h-1zM19 15h1v1h-1zM20 15h1v1h-1zM26 15h1v1h-1zM27 15h1v1h-1zM28 15h1v1h-1zM30 15h1v1h-1zM32 15h1v1h-1zM34 15h1v1h-1zM36 15h1v1h-1zM38 15h1v1h-1zM39 15h1v1h-1zM7 16h1v1h-1zM8 16h1v1h-1zM9 16h1v1h-1zM10 16h1v1h-1zM12 16h1v1h-1zM13 16h1v1h-1zM18 16h1v1h-1zM19 16h1v1h-1zM20 16h1v1h-1zM22 16h1v1h-1zM23 16h1v1h-1zM24 16h1v1h-1zM25 16h1v1h-1zM26 16h1v1h-1zM28 16h1v1h-1zM29 16h1v1h-1zM30 16h1v1h-1zM31 16h1v1h-1zM32 16h1v1h-1zM34 16h1v1h-1zM40 16h1v1h-1zM4 17h1v1h-1zM5 17h1v1h-1zM7 17h1v1h-1zM8 17h1v1h-1zM9 17h1v1h-1zM12 17h1v1h-1zM15 17h1v1h-1zM17 17h1v1h-1zM18 17h1v1h-1zM19 17h1v1h-1zM20 17h1v1h-1zM22 17h1v1h-1zM23 17h1v1h-1zM25 17h1v1h-1zM27 17h1v1h-1zM29 17h1v1h-1zM34 17h1v1h-1zM35 17h1v1h-1zM39 17h1v1h-1zM40 17h1v1h-1zM6 18h1v1h-1zM8 18h1v1h-1zM9 18h1v1h-1zM10 18h1v1h-1zM11 18h1v1h-1zM14 18h1v1h-1zM15 18h1v1h-1zM16 18h1v1h-1zM18 18h1v1h-1zM19 18h1v1h-1zM22 18h1v1h-1zM27 18h1v1h-1zM30 18h1v1h-1zM33 18h1v1h-1zM35 18h1v1h-1zM36 18h1v1h-1zM37 18h1v1h-1zM38 18h1v1h-1zM4 19h1v1h-1zM5 19h1v1h-1zM6 19h1v1h-1zM7 19h1v1h-1zM9 19h1v1h-1zM15 19h1v1h-1zM18 19h1v1h-1zM22 19h1v1h-1zM27 19h1v1h-1zM29 19h1v1h-1zM31 19h1v1h-1zM33 19h1v1h-1zM34 19h1v1h-1zM35 19h1v1h-1zM36 19h1v1h-1zM37 19h1v1h-1zM38 19h1v1h-1zM4 20h1v1h-1zM6 20h1v1h-1zM8 20h1v1h-1zM10 20h1v1h-1zM12 20h1v1h-1zM38 20h1v1h-1zM39 20h1v1h-1zM40 20h1v1h-1zM6 21h1v1h-1zM7 21h1v1h-1zM11 21h1v1h-1zM14 21h1v1h-1zM35 21h1v1h-1zM36 21h1v1h-1zM37 21h1v1h-1zM38 21h1v1h-1zM39 21h1v1h-1zM40 21h1v1h-1zM8 22h1v1h-1zM9 22h1v1h-1zM10 22h1v1h-1zM12 22h1v1h-1zM13 22h1v1h-1zM34 22h1v1h-1zM36 22h1v1h-1zM40 22h1v1h-1zM6 23h1v1h-1zM8 23h1v1h-1zM9 23h1v1h-1zM11 23h1v1h-1zM12 23h1v1h-1zM23 23h1v1h-1zM31 23h1v1h-1zM32 23h1v1h-1zM35 23h1v1h-1zM37 23h1v1h-1zM40 23h1v1h-1zM4 24h1v1h-1zM8 24h1v1h-1zM9 24h1v1h-1zM10 24h1v1h-1zM11 24h1v1h-1zM13 24h1v1h-1zM31 24h1v1h-1zM32 24h1v1h-1zM35 24h1v1h-1zM37 24h1v1h-1zM38 24h1v1h-1zM40 24h1v1h-1zM4 25h1v1h-1zM5 25h1v1h-1zM8 25h1v1h-1zM9 25h1v1h-1zM31 25h1v1h-1zM32 25h1v1h-1zM33 25h1v1h-1zM34 25h1v1h-1zM35 25h1v1h-1zM38 25h1v1h-1zM40 25h1v1h-1zM4 26h1v1h-1zM7 26h1v1h-1zM10 26h1v1h-1zM14 26h1v1h-1zM15 26h1v1h-1zM20 26h1v1h-1zM25 26h1v1h-1zM30 26h1v1h-1zM31 26h1v1h-1zM32 26h1v1h-1zM33 26h1v1h-1zM35 26h1v1h-1zM36 26h1v1h-1zM38 26h1v1h-1zM40 26h1v1h-1zM5 27h1v1h-1zM7 27h1v1h-1zM8 27h1v1h-1zM15 27h1v1h-1zM17 27h1v1h-1zM19 27h1v1h-1zM21 27h1v1h-1zM22 27h1v1h-1zM24 27h1v1h-1zM26 27h1v1h-1zM27 27h1v1h-1zM28 27h1v1h-1zM29 27h1v1h-1zM30 27h1v1h-1zM31 27h1v1h-1zM32 27h1v1h-1zM33 27h1v1h-1zM37 27h1v1h-1zM40 27h1v1h-1zM5 28h1v1h-1zM7 28h1v1h-1zM9 28h1v1h-1zM10 28h1v1h-1zM12 28h1v1h-1zM15 28h1v1h-1zM18 28h1v1h-1zM20 28h1v1h-1zM22 28h1v1h-1zM24 28h1v1h-1zM25 28h1v1h-1zM27 28h1v1h-1zM31 28h1v1h-1zM34 28h1v1h-1zM35 28h1v1h-1zM37 28h1v1h-1zM39 28h1v1h-1zM5 29h1v1h-1zM6 29h1v1h-1zM7 29h1v1h-1zM9 29h1v1h-1zM11 29h1v1h-1zM12 29h1v1h-1zM14 29h1v1h-1zM20 29h1v1h-1zM26 29h1v1h-1zM27 29h1v1h-1zM32 29h1v1h-1zM36 29h1v1h-1zM37 29h1v1h-1zM38 29h1v1h-1zM39 29h1v1h-1zM5 30h1v1h-1zM6 30h1v1h-1zM10 30h1v1h-1zM11 30h1v1h-1zM12 30h1v1h-1zM13 30h1v1h-1zM14 30h1v1h-1zM17 30h1v1h-1zM18 30h1v1h-1zM19 30h1v1h-1zM21 30h1v1h-1zM22 30h1v1h-1zM23 30h1v1h-1zM24 30h1v1h-1zM25 30h1v1h-1zM26 30h1v1h-1zM28 30h1v1h-1zM29 30h1v1h-1zM30 30h1v1h-1zM31 30h1v1h-1zM32 30h1v1h-1zM33 30h1v1h-1zM34 30h1v1h-1zM39 30h1v1h-1zM40 30h1v1h-1zM4 31h1v1h-1zM6 31h1v1h-1zM7 31h1v1h-1zM8 31h1v1h-1zM14 31h1v1h-1zM15 31h1v1h-1zM17 31h1v1h-1zM18 31h1v1h-1zM19 31h1v1h-1zM21 31h1v1h-1zM22 31h1v1h-1zM25 31h1v1h-1zM26 31h1v1h-1zM28 31h1v1h-1zM32 31h1v1h-1zM33 31h1v1h-1zM34 31h1v1h-1zM38 31h1v1h-1zM6 32h1v1h-1zM10 32h1v1h-1zM13 32h1v1h-1zM14 32h1v1h-1zM15 32h1v1h-1zM18 32h1v1h-1zM19 32h1v1h-1zM20 32h1v1h-1zM25 32h1v1h-1zM27 32h1v1h-1zM28 32h1v1h-1zM31 32h1v1h-1zM32 32h1v1h-1zM33 32h1v1h-1zM34 32h1v1h-1zM35 32h1v1h-1zM36 32h1v1h-1zM40 32h1v1h-1zM12 33h1v1h-1zM14 33h1v1h-1zM15 33h1v1h-1zM16 33h1v1h-1zM17 33h1v1h-1zM21 33h1v1h-1zM23 33h1v1h-1zM26 33h1v1h-1zM29 33h1v1h-1zM30 33h1v1h-1zM32 33h1v1h-1zM36 33h1v1h-1zM40 33h1v1h-1zM4 34h1v1h-1zM5 34h1v1h-1zM6 34h1v1h-1zM7 34h1v1h-1zM8 34h1v1h-1zM9 34h1v1h-1zM10 34h1v1h-1zM12 34h1v1h-1zM17 34h1v1h-1zM18 34h1v1h-1zM20 34h1v1h-1zM21 34h1v1h-1zM26 34h1v1h-1zM31 34h1v1h-1zM32 34h1v1h-1zM34 34h1v1h-1zM36 34h1v1h-1zM37 34h1v1h-1zM38 34h1v1h-1zM40 34h1v1h-1zM4 35h1v1h-1zM10 35h1v1h-1zM13 35h1v1h-1zM14 35h1v1h-1zM17 35h1v1h-1zM23 35h1v1h-1zM24 35h1v1h-1zM26 35h1v1h-1zM27 35h1v1h-1zM31 35h1v1h-1zM32 35h1v1h-1zM36 35h1v1h-1zM37 35h1v1h-1zM39 35h1v1h-1zM40 35h1v1h-1zM4 36h1v1h-1zM6 36h1v1h-1zM7 36h1v1h-1zM8 36h1v1h-1zM10 36h1v1h-1zM13 36h1v1h-1zM15 36h1v1h-1zM16 36h1v1h-1zM18 36h1v1h-1zM19 36h1v1h-1zM21 36h1v1h-1zM23 36h1v1h-1zM24 36h1v1h-1zM25 36h1v1h-1zM29 36h1v1h-1zM31 36h1v1h-1zM32 36h1v1h-1zM33 36h1v1h-1zM34 36h1v1h-1zM35 36h1v1h-1zM36 36h1v1h-1zM40 36h1v1h-1zM4 37h1v1h-1zM6 37h1v1h-1zM7 37h1v1h-1zM8 37h1v1h-1zM10 37h1v1h-1zM12 37h1v1h-1zM15 37h1v1h-1zM16 37h1v1h-1zM17 37h1v1h-1zM19 37h1v1h-1zM20 37h1v1h-1zM21 37h1v1h-1zM22 37h1v1h-1zM23 37h1v1h-1zM24 37h1v1h-1zM25 37h1v1h-1zM26 37h1v1h-1zM29 37h1v1h-1zM30 37h1v1h-1zM31 37h1v1h-1zM32 37h1v1h-1zM33 37h1v1h-1zM35 37h1v1h-1zM38 37h1v1h-1zM40 37h1v1h-1zM4 38h1v1h-1zM6 38h1v1h-1zM7 38h1v1h-1zM8 38h1v1h-1zM10 38h1v1h-1zM12 38h1v1h-1zM14 38h1v1h-1zM15 38h1v1h-1zM18 38h1v1h-1zM19 38h1v1h-1zM21 38h1v1h-1zM22 38h1v1h-1zM23 38h1v1h-1zM29 38h1v1h-1zM31 38h1v1h-1zM32 38h1v1h-1zM36 38h1v1h-1zM38 38h1v1h-1zM39 38h1v1h-1zM4 39h1v1h-1zM10 39h1v1h-1zM13 39h1v1h-1zM14 39h1v1h-1zM17 39h1v1h-1zM19 39h1v1h-1zM20 39h1v1h-1zM21 39h1v1h-1zM23 39h1v1h-1zM25 39h1v1h-1zM27 39h1v1h-1zM28 39h1v1h-1zM32 39h1v1h-1zM37 39h1v1h-1zM40 39h1v1h-1zM4 40h1v1h-1zM5 40h1v1h-1zM6 40h1v1h-1zM7 40h1v1h-1zM8 40h1v1h-1zM9 40h1v1h-1zM10 40h1v1h-1zM15 40h1v1h-1zM17 40h1v1h-1zM21 40h1v1h-1zM24 40h1v1h-1zM26 40h1v1h-1zM27 40h1v1h-1zM28 40h1v1h-1zM30 40h1v1h-1zM31 40h1v1h-1zM34 40h1v1h-1zM40 40h1v1h-1z"/>
  <g transform="translate(15.1000 18.6202) scale(0.007191)">
    <path fill="#101012" fill-rule="evenodd" d="M1285.7 366.1C1285.4 706.9 1285.3 732.1 1283.7 740C1270.1 807 1230.3 859.5 1171.7 887.5C1142.1 901.6 1116.5 907.3 1082.5 907.3C1047.4 907.2 1022.2 901.4 993.2 886.5C945.1 862 907.2 817.7 889.9 765.9C879.8 735.6 877.7 707.3 882.9 672.5C886.4 649.5 888.3 643 894.7 632.1C921.8 585.8 953.3 556 998.5 534C1030.5 518.4 1059.1 513 1114.3 512.4C1148.3 512 1149.6 511.9 1153.3 506.8C1156 503.2 1183.3 363.8 1182.7 356.9C1182.1 350.1 1179.1 345 1173.7 341.6C1165.6 336.6 1124.4 330.7 1088.5 329.4C1026.6 327.2 950.9 343.5 891.2 372.1C853.5 390.1 824.7 410.3 796.4 438.5C774.7 460.2 760 478.5 739.1 510C728.9 525.4 724.7 532.5 711.9 555.4L709.2 560.4L702.2 546.4C672.2 486.5 634 441.7 581 404C538.4 373.8 483.5 351.2 430.5 342C390.7 335.2 344.3 335.2 304.6 342C207.4 358.8 119.2 416.4 63.5 499.5C-11.6 611.6 -20.3 754.4 40.5 875C58.8 911.1 79.4 939.5 108.5 968.5C145.6 1005.6 189.5 1033.9 238.5 1052.2C303.2 1076.5 390.6 1085 466.5 1074.4C546.1 1063.4 626.7 1031.1 682.5 988C711.6 965.5 747.5 930 766.5 904.7C769.3 901.1 771.7 898.1 772 898.1C772.3 898.1 774 900.5 775.8 903.5C792.1 930.5 822.3 964.8 850.3 988.1C904.9 1033.8 968.2 1061 1041 1070.2C1054.8 1071.9 1103.9 1071.9 1118 1070.2C1186.9 1061.7 1248.4 1039.5 1297.7 1005.3C1327.8 984.5 1356.6 955.8 1378.8 924.6C1404.4 888.6 1427.2 840.2 1439.4 795.6L1442.7 783.7L1445.9 796.6C1457.1 841.3 1476.3 882.5 1502.7 918.7C1529.7 955.7 1565.6 989.6 1605.3 1015.4C1651.6 1045.6 1700.2 1062.9 1759 1070.2C1774.9 1072.2 1822.9 1071.8 1841 1069.6C1882.3 1064.6 1915.4 1055.9 1949 1041.3C1983.8 1026.2 2023.5 1000 2048.8 975.5C2056.2 968.2 2057 967.1 2057 963.7C2057 961.6 2056.4 958.7 2055.6 957.2C2054.8 955.7 2047.5 948.2 2039.3 940.6C2031.2 932.9 2008 910.8 1987.9 891.5C1949.3 854.3 1947.6 852.9 1940.8 854.8C1938.9 855.3 1931.8 860 1924.9 865.2C1891.7 890.4 1859.6 903.3 1820.5 907.1C1806.4 908.5 1784.3 907.8 1769 905.4C1685.7 892.8 1620.3 829.7 1602.5 745C1598.9 728.1 1597.9 696.5 1600.4 678.7C1606.4 636.3 1626.7 595.8 1657.8 564.2C1705.3 516 1774 495 1840.6 508.5C1872 514.9 1904.3 530.2 1929.9 551C1938.5 558 1941.9 559.4 1947.2 558C1950.6 557 1955.4 552.8 1975.9 532.7C1989.5 519.4 2012.6 497.1 2027.3 483.1C2057.3 454.6 2058.5 452.9 2055.5 445.2C2054.2 442.2 2051.2 438.7 2044.1 432.7C1984.5 380.9 1919.4 351.2 1846 342.4C1826.3 340 1787.1 340 1767 342.4C1674.7 353.3 1602.8 386.1 1545.5 443.4C1506.6 482.3 1475.6 531.6 1454.4 588L1450.1 599.5L1450 381.4C1450 228.2 1449.7 162.4 1448.9 160.2C1447.4 156 1313.4 24.5 1288.3 2.6L1286 0.7L1285.7 366.1ZM1112.5 356.1C1124.1 357.1 1155.9 361.6 1156.7 362.4C1157 362.7 1135.1 477.3 1133.3 484.7C1132.8 487 1132.6 487 1114.1 487C1074.2 487 1041.4 491.4 1013.2 500.6C999.2 505.2 971.4 519 957.4 528.3C920.1 553.1 893.5 582.6 869 626.5C854 653.2 838.5 689.7 833.9 709.4C832.8 713.8 830.4 722.4 828.5 728.5C826.7 734.5 823.9 743.5 822.5 748.5C815.8 770.9 797.3 812 782.5 837C757.7 878.9 726 917.5 691 948.3C661.6 974.2 639.1 989.2 604 1006.4C523.2 1046.2 433.6 1061.2 341.9 1050.3C333.4 1049.3 328 1048.3 328 1047.6C328 1047 334.2 1019.3 341.8 986L355.7 925.5L360.6 925.3C480.9 919.6 586.1 858.3 656.8 752.5C676.5 723 686.6 700.5 701.5 652.6C717.5 600.9 727.1 578 746.7 545C780.6 488 818.4 446 861.2 417.7C899.2 392.5 947.1 373.4 997.7 363.1C1039.5 354.6 1071.6 352.7 1112.5 356.1ZM386.5 512C411.9 514.1 433 519.7 455 530.1C512.6 557.6 551.4 610.7 562.7 677.9C564.1 686 564.5 693.8 564.4 711C564.4 731.4 564.1 734.7 561.7 746.1C549.7 802.8 512.4 851.8 462.8 876.1C451.9 881.4 429.2 889.1 412 893.4C397.9 896.8 380.9 899 361.5 899.7C346.7 900.2 344.6 900.1 332.5 897.6C297 890.1 264.1 874.7 239.3 853.9C207.1 826.8 182.5 782.9 174.5 738C172.2 725.2 171.4 698.2 172.9 685C178.1 639.2 198 598.5 230.6 567C266.9 532 313 513.4 369.1 511.2C371.6 511.1 379.5 511.5 386.5 512Z"/>
  </g>
</svg>
